<svg width="96" height="27" viewBox="0 0 96 27" fill="none" xmlns="http://www.w3.org/2000/svg">
<path d="M19.6971 25.7297V10.7239L14.3156 21.6501H11.15L5.76843 10.7239V25.7297H0V0.542608H6.26086L12.7328 13.7037L19.2398 0.542608H25.4655V25.7297H19.6971Z" fill="#C6CBCD"/>
<path d="M38.2884 26.0844C36.178 26.0844 34.3841 25.6351 32.9069 24.7364C31.453 23.8377 30.3392 22.6552 29.5654 21.1889C28.7916 19.7226 28.4047 18.1381 28.4047 16.4353C28.4047 14.7089 28.7916 13.1125 29.5654 11.6462C30.3392 10.1799 31.4648 8.99743 32.942 8.09873C34.4193 7.20004 36.2014 6.75069 38.2884 6.75069C40.3753 6.75069 42.1575 7.20004 43.6347 8.09873C45.112 8.99743 46.2376 10.1799 47.0114 11.6462C47.7852 13.1125 48.1721 14.7089 48.1721 16.4353C48.1721 18.1381 47.7852 19.7226 47.0114 21.1889C46.2376 22.6552 45.112 23.8377 43.6347 24.7364C42.1575 25.6351 40.3753 26.0844 38.2884 26.0844ZM34.1731 16.4353C34.1731 17.8779 34.56 19.0486 35.3338 19.9473C36.1311 20.846 37.1159 21.2953 38.2884 21.2953C39.4374 21.2953 40.3988 20.846 41.1726 19.9473C41.9699 19.0486 42.3685 17.8779 42.3685 16.4353C42.3685 14.9927 41.9699 13.822 41.1726 12.9233C40.3988 12.0246 39.4374 11.5753 38.2884 11.5753C37.1159 11.5753 36.1311 12.0246 35.3338 12.9233C34.56 13.822 34.1731 14.9927 34.1731 16.4353Z" fill="#C6CBCD"/>
<path d="M62.0076 25.9071C60.3662 25.9071 58.8185 25.5996 57.3647 24.9847C55.9343 24.3462 54.6564 23.4593 53.5308 22.3241C52.4287 21.1653 51.5611 19.8054 50.928 18.2445C50.3183 16.66 50.0135 14.8981 50.0135 12.9588C50.0135 11.2087 50.3183 9.57685 50.928 8.06326C51.5611 6.54967 52.4404 5.21345 53.566 4.05461C54.715 2.89577 56.0398 1.99707 57.5406 1.35853C59.0647 0.696332 60.7062 0.365234 62.4648 0.365234C64.7628 0.365234 66.7794 0.861882 68.5147 1.85518C70.2733 2.84847 71.5865 4.18468 72.4541 5.86382L68.1629 9.1275C67.6002 8.01596 66.7794 7.14091 65.7008 6.50237C64.6221 5.86382 63.4731 5.54455 62.2538 5.54455C60.9876 5.54455 59.8737 5.88747 58.9123 6.57332C57.9509 7.23551 57.2006 8.14604 56.6612 9.30488C56.1219 10.4637 55.8522 11.7526 55.8522 13.1716C55.8522 14.6143 56.1336 15.915 56.6964 17.0738C57.2592 18.209 58.033 19.1077 59.0178 19.7699C60.0261 20.4085 61.1869 20.7278 62.5 20.7278C64.7511 20.7278 66.7794 19.6872 68.585 17.606V16.7901H63.7311V12.5686H73.3686V25.7297H68.585V23.2465C66.6856 25.0202 64.4932 25.9071 62.0076 25.9071Z" fill="#C6CBCD"/>
<path d="M85.5182 26.0844C83.4078 26.0844 81.614 25.6351 80.1367 24.7364C78.6829 23.8377 77.569 22.6552 76.7952 21.1889C76.0214 19.7226 75.6345 18.1381 75.6345 16.4353C75.6345 14.7089 76.0214 13.1125 76.7952 11.6462C77.569 10.1799 78.6946 8.99743 80.1719 8.09873C81.6492 7.20004 83.4313 6.75069 85.5182 6.75069C87.6052 6.75069 89.3873 7.20004 90.8646 8.09873C92.3419 8.99743 93.4674 10.1799 94.2412 11.6462C95.015 13.1125 95.4019 14.7089 95.4019 16.4353C95.4019 18.1381 95.015 19.7226 94.2412 21.1889C93.4674 22.6552 92.3419 23.8377 90.8646 24.7364C89.3873 25.6351 87.6052 26.0844 85.5182 26.0844ZM81.4029 16.4353C81.4029 17.8779 81.7898 19.0486 82.5637 19.9473C83.3609 20.846 84.3458 21.2953 85.5182 21.2953C86.6672 21.2953 87.6286 20.846 88.4024 19.9473C89.1997 19.0486 89.5983 17.8779 89.5983 16.4353C89.5983 14.9927 89.1997 13.822 88.4024 12.9233C87.6286 12.0246 86.6672 11.5753 85.5182 11.5753C84.3458 11.5753 83.3609 12.0246 82.5637 12.9233C81.7898 13.822 81.4029 14.9927 81.4029 16.4353Z" fill="#C6CBCD"/>
</svg>
