<svg width="87" height="87" viewBox="0 0 87 87" fill="none" xmlns="http://www.w3.org/2000/svg">
<path d="M24.4449 26.3145L16 34.7593L24.4449 43.2042L32.8898 34.7593L24.4449 26.3145Z" fill="#414042"/>
<path d="M32.9038 34.7554L24.4557 26.3074C26.6945 28.5469 27.9522 31.584 27.9522 34.7507C27.9522 37.9174 26.6945 40.9545 24.4557 43.1941L16.0076 51.6327L24.4557 60.0808L32.9038 51.6327L41.3518 43.1941L32.9038 34.7554Z" fill="url(#paint0_linear_2813_2538)"/>
<path d="M61.9467 60.0992L70.3914 51.6544L61.9467 43.2095L53.5018 51.6544L61.9467 60.0992Z" fill="#414042"/>
<path d="M53.5031 51.6516L61.9513 60.0903C59.7125 57.8507 58.4548 54.8136 58.4548 51.6469C58.4548 48.4802 59.7125 45.4431 61.9513 43.2036L70.3995 34.7554L61.9513 26.3074L53.5031 34.7554L45.0646 43.2036L53.5031 51.6516Z" fill="url(#paint1_linear_2813_2538)"/>
<path d="M26.3137 61.9559L34.7586 70.4008L43.2035 61.9559L34.7586 53.511L26.3137 61.9559Z" fill="#414042"/>
<path d="M34.7601 53.4985L26.312 61.9465C28.5516 59.7078 31.5886 58.4501 34.7553 58.4501C37.922 58.4501 40.9591 59.7078 43.1987 61.9465L51.6374 70.3948L60.0854 61.9465L51.6374 53.4985L43.1987 45.0598L34.7601 53.4985Z" fill="url(#paint2_linear_2813_2538)"/>
<path d="M60.0989 24.4449L51.654 16L43.2091 24.4449L51.654 32.8898L60.0989 24.4449Z" fill="#414042"/>
<path d="M51.6562 32.8991L60.0949 24.4511C57.8553 26.6898 54.8182 27.9475 51.6515 27.9475C48.4848 27.9475 45.4478 26.6898 43.2081 24.4511L34.7601 16.0029L26.312 24.4511L34.7601 32.8991L43.2081 41.3473L51.6562 32.8991Z" fill="url(#paint3_linear_2813_2538)"/>
<defs>
<linearGradient id="paint0_linear_2813_2538" x1="28.5945" y1="58.6981" x2="28.8028" y2="29.4801" gradientUnits="userSpaceOnUse">
<stop stop-color="#414042"/>
<stop offset="1" stop-color="#E6E7E8"/>
</linearGradient>
<linearGradient id="paint1_linear_2813_2538" x1="99571.2" y1="12787.1" x2="99561" y2="13829.3" gradientUnits="userSpaceOnUse">
<stop stop-color="#414042"/>
<stop offset="1" stop-color="#E6E7E8"/>
</linearGradient>
<linearGradient id="paint2_linear_2813_2538" x1="64165.8" y1="76842.4" x2="63384.2" y2="76838.4" gradientUnits="userSpaceOnUse">
<stop stop-color="#414042"/>
<stop offset="1" stop-color="#E6E7E8"/>
</linearGradient>
<linearGradient id="paint3_linear_2813_2538" x1="52328.6" y1="-39754.5" x2="53110.5" y2="-39750.3" gradientUnits="userSpaceOnUse">
<stop stop-color="#414042"/>
<stop offset="1" stop-color="#E6E7E8"/>
</linearGradient>
</defs>
</svg>
