<svg width="87" height="87" viewBox="0 0 87 87" fill="none" xmlns="http://www.w3.org/2000/svg">
<path opacity="0.95" d="M27.9343 57.3726V65.273L34.77 61.3194V53.4258L27.9343 57.3726Z" fill="#414042"/>
<path opacity="0.5" d="M26.8357 57.3726V65.273L20 61.3194V53.4258L26.8357 57.3726Z" fill="#414042"/>
<path opacity="0.3" d="M27.9343 48.8416V56.1045L34.2275 52.4696L27.9343 48.8416Z" fill="#414042"/>
<path opacity="0.75" d="M26.8357 48.8416L20.5425 52.4696L26.8357 56.1045V48.8416Z" fill="#414042"/>
<path opacity="0.95" d="M26.8357 46.9021V39.0017L20 42.9553V50.8489L26.8357 46.9021Z" fill="#414042"/>
<path opacity="0.95" d="M27.9343 28.531V36.4314L34.77 32.4778V24.5842L27.9343 28.531Z" fill="#414042"/>
<path opacity="0.5" d="M26.8357 28.531V36.4314L20 32.4778V24.5842L26.8357 28.531Z" fill="#414042"/>
<path opacity="0.3" d="M27.9343 20V27.2629L34.2275 23.6281L27.9343 20Z" fill="#414042"/>
<path opacity="0.75" d="M26.8357 20L20.5425 23.6281L26.8357 27.2629V20Z" fill="#414042"/>
<path opacity="0.75" d="M20.5425 34.0513V41.321L26.8357 37.6861L20.5425 34.0513Z" fill="#414042"/>
<path opacity="0.15" d="M34.2275 34.0513L27.9343 37.6861L34.2275 41.321V34.0513Z" fill="#414042"/>
<path opacity="0.5" d="M27.9343 46.9021V39.0017L34.77 42.9553V50.8489L27.9343 46.9021Z" fill="#414042"/>
<path opacity="0.95" d="M43.8707 57.3726V65.273L50.7064 61.3194V53.4258L43.8707 57.3726Z" fill="#414042"/>
<path opacity="0.5" d="M42.7721 57.3726V65.273L35.9364 61.3194V53.4258L42.7721 57.3726Z" fill="#414042"/>
<path opacity="0.3" d="M43.8707 48.8416V56.1045L50.1639 52.4696L43.8707 48.8416Z" fill="#414042"/>
<path opacity="0.75" d="M42.7721 48.8416L36.4789 52.4696L42.7721 56.1045V48.8416Z" fill="#414042"/>
<path opacity="0.95" d="M42.7721 46.9021V39.0017L35.9364 42.9553V50.8489L42.7721 46.9021Z" fill="#414042"/>
<path opacity="0.95" d="M43.8707 28.531V36.4314L50.7064 32.4778V24.5842L43.8707 28.531Z" fill="#414042"/>
<path opacity="0.5" d="M42.7721 28.531V36.4314L35.9364 32.4778V24.5842L42.7721 28.531Z" fill="#414042"/>
<path opacity="0.3" d="M43.8707 20V27.2629L50.1639 23.6281L43.8707 20Z" fill="#414042"/>
<path opacity="0.75" d="M42.7721 20L36.4789 23.6281L42.7721 27.2629V20Z" fill="#414042"/>
<path opacity="0.75" d="M36.4789 34.0513V41.321L42.7721 37.6861L36.4789 34.0513Z" fill="#414042"/>
<path opacity="0.15" d="M50.1639 34.0513L43.8707 37.6861L50.1639 41.321V34.0513Z" fill="#414042"/>
<path opacity="0.5" d="M43.8707 46.9021V39.0017L50.7064 42.9553V50.8489L43.8707 46.9021Z" fill="#414042"/>
<path opacity="0.95" d="M59.5765 57.3726V65.273L66.419 61.3194V53.4258L59.5765 57.3726Z" fill="#414042"/>
<path opacity="0.5" d="M58.4847 57.3726V65.273L51.6422 61.3194V53.4258L58.4847 57.3726Z" fill="#414042"/>
<path opacity="0.3" d="M59.5765 48.8416V56.1045L65.8697 52.4696L59.5765 48.8416Z" fill="#414042"/>
<path opacity="0.75" d="M58.4847 48.8416L52.1915 52.4696L58.4847 56.1045V48.8416Z" fill="#414042"/>
<path opacity="0.95" d="M58.4847 46.9021V39.0017L51.6422 42.9553V50.8489L58.4847 46.9021Z" fill="#414042"/>
<path opacity="0.95" d="M59.5765 28.531V36.4314L66.419 32.4778V24.5842L59.5765 28.531Z" fill="#414042"/>
<path opacity="0.5" d="M58.4847 28.531V36.4314L51.6422 32.4778V24.5842L58.4847 28.531Z" fill="#414042"/>
<path opacity="0.3" d="M59.5765 20V27.2629L65.8697 23.6281L59.5765 20Z" fill="#414042"/>
<path opacity="0.75" d="M58.4847 20L52.1915 23.6281L58.4847 27.2629V20Z" fill="#414042"/>
<path opacity="0.75" d="M52.1915 34.0513V41.321L58.4847 37.6861L52.1915 34.0513Z" fill="#414042"/>
<path opacity="0.15" d="M65.8697 34.0513L59.5765 37.6861L65.8697 41.321V34.0513Z" fill="#414042"/>
<path opacity="0.5" d="M59.5765 46.9021V39.0017L66.419 42.9553V50.8489L59.5765 46.9021Z" fill="#414042"/>
</svg>
