<svg width="87" height="87" viewBox="0 0 87 87" fill="none" xmlns="http://www.w3.org/2000/svg">
<path d="M66.026 56.8755C65.6345 56.2524 65.1227 55.7135 64.5205 55.2904C63.9183 54.8673 63.2378 54.5685 62.5189 54.4114C59.768 53.7716 57.3823 52.069 55.8829 49.6756C54.3836 47.2822 53.8926 44.3926 54.5172 41.6383C54.7573 40.5737 54.6776 39.462 54.2879 38.4426C53.8983 37.4232 53.2161 36.5417 52.3271 35.9088C51.4381 35.2759 50.3819 34.9198 49.2911 34.8851C48.2004 34.8505 47.1237 35.1389 46.1964 35.7142C45.269 36.2895 44.5323 37.126 44.0788 38.1186C43.6253 39.1112 43.4752 40.2157 43.6474 41.2933C43.8195 42.371 44.3062 43.3737 45.0464 44.1756C45.7866 44.9775 46.7472 45.5429 47.8076 45.8006C49.1795 46.11 50.4768 46.6872 51.6252 47.499C52.7736 48.3108 53.7504 49.3413 54.4998 50.5313C55.2491 51.7214 55.7563 53.0476 55.992 54.434C56.2279 55.8204 56.1878 57.2398 55.874 58.6106C55.6882 59.4944 55.7213 60.4102 55.9705 61.2781C56.2197 62.1461 56.6774 62.9399 57.3038 63.5905C57.9301 64.2411 58.706 64.7286 59.5639 65.0106C60.4218 65.2925 61.3356 65.3604 62.2258 65.2083C63.116 65.0562 63.9554 64.6886 64.671 64.1377C65.3865 63.5868 65.9564 62.8693 66.3312 62.0477C66.7059 61.226 66.874 60.3252 66.8208 59.4237C66.7676 58.5222 66.4948 57.6474 66.026 56.8755Z" fill="#414042"/>
<path d="M31.9796 50.729C32.9483 51.2576 34.0528 51.4848 35.1515 51.3813C36.2502 51.2778 37.2928 50.8484 38.1458 50.1482C38.9988 49.448 39.6231 48.5089 39.9385 47.4515C40.2541 46.394 40.2464 45.2663 39.9166 44.2132C39.4985 42.8704 39.3496 41.4583 39.4784 40.0578C39.6071 38.6573 40.011 37.296 40.6669 36.0519C41.3228 34.8078 42.2179 33.7054 43.3007 32.8079C44.3835 31.9104 45.6327 31.2355 46.9769 30.8218C48.0194 30.4952 48.942 29.8676 49.6286 29.018C50.3152 28.1683 50.7352 27.1346 50.8356 26.0467C50.9361 24.9589 50.7126 23.8657 50.1932 22.9047C49.6738 21.9436 48.8817 21.1576 47.9167 20.6457C46.9517 20.1338 45.8568 19.9187 44.7699 20.0276C43.6829 20.1364 42.6524 20.5643 41.808 21.2575C40.9636 21.9507 40.3432 22.8781 40.0247 23.9231C39.7062 24.968 39.7039 26.0838 40.0181 27.1301C40.8429 29.8311 40.5639 32.749 39.2425 35.2449C37.921 37.7408 35.6646 39.6116 32.9671 40.4477C31.9022 40.7565 30.9545 41.3778 30.2467 42.2314C29.5389 43.0849 29.1036 44.1312 28.9972 45.2348C28.8909 46.3385 29.1183 47.4487 29.65 48.4216C30.1817 49.3946 30.9933 50.1855 31.9796 50.692V50.729Z" fill="#414042"/>
<path d="M46.2294 49.8243C45.4931 49.8501 44.7695 50.0227 44.1007 50.3317C43.4319 50.6407 42.8315 51.08 42.3347 51.624C40.407 53.6858 37.7414 54.9005 34.9208 55.0026C32.1 55.1046 29.3536 54.0856 27.282 52.1685C26.7467 51.6663 26.117 51.2755 25.4294 51.0188C24.7418 50.7621 24.01 50.6447 23.2766 50.6734C22.3738 50.716 21.4952 50.9789 20.7174 51.4392C19.9396 51.8994 19.2863 52.5431 18.8145 53.3138C18.3427 54.0847 18.0667 54.9593 18.0107 55.8613C17.9546 56.7634 18.1202 57.6654 18.4929 58.4887C18.8657 59.312 19.4343 60.0315 20.1491 60.5846C20.8639 61.1376 21.7032 61.5072 22.5938 61.6612C23.4843 61.8152 24.3991 61.7489 25.2581 61.4681C26.1171 61.1873 26.8944 60.7005 27.5219 60.0502C28.4766 59.0166 29.6258 58.1814 30.9037 57.5927C32.1817 57.0039 33.5632 56.673 34.9692 56.619C36.3752 56.565 37.7781 56.7889 39.0974 57.2779C40.4167 57.7669 41.6266 58.5114 42.6577 59.4688C43.329 60.0754 44.1387 60.5081 45.016 60.7294C45.8933 60.9506 46.8114 60.9536 47.69 60.7379C48.5687 60.5222 49.3811 60.0946 50.0562 59.4923C50.7314 58.8901 51.2487 58.1315 51.5629 57.2831C51.8771 56.4347 51.9786 55.5222 51.8587 54.6254C51.7386 53.7287 51.4007 52.8751 50.8744 52.1391C50.3482 51.4032 49.6497 50.8074 48.8399 50.4038C48.0301 50.0003 47.1338 49.8013 46.2294 49.8243Z" fill="#414042"/>
</svg>
