<svg width="88" height="88" viewBox="0 0 88 88" fill="none" xmlns="http://www.w3.org/2000/svg">
<g opacity="0.1">
<path opacity="0.1" d="M87.2058 85.1714V87.2058H85.1714" stroke="#20263C" stroke-miterlimit="10"/>
<path opacity="0.1" d="M81.2653 87.2061H4.98743" stroke="#20263C" stroke-miterlimit="10" stroke-dasharray="5.77 5.77"/>
<path opacity="0.1" d="M3.03444 87.2058H1V85.1714" stroke="#20263C" stroke-miterlimit="10"/>
<path opacity="0.1" d="M1 81.2652V4.9873" stroke="#20263C" stroke-miterlimit="10" stroke-dasharray="5.77 5.77"/>
<path opacity="0.1" d="M1 3.03444V1H3.03444" stroke="#20263C" stroke-miterlimit="10"/>
<path opacity="0.1" d="M6.94739 1H83.2184" stroke="#20263C" stroke-miterlimit="10" stroke-dasharray="5.77 5.77"/>
<path opacity="0.1" d="M85.1714 1H87.2058V3.03444" stroke="#20263C" stroke-miterlimit="10"/>
<path opacity="0.1" d="M87.2058 6.94727V83.2183" stroke="#20263C" stroke-miterlimit="10" stroke-dasharray="5.77 5.77"/>
</g>
<path d="M34.962 25.6825C34.2848 26.1275 33.7209 26.7262 33.3157 27.4303C32.9105 28.1344 32.6752 28.9244 32.6288 29.7367V34.3537C32.6752 35.166 32.9105 35.956 33.3157 36.6601C33.7209 37.3643 34.2848 37.9629 34.962 38.4079L39.7897 41.2697C41.0701 42.0138 42.1228 41.4033 42.1228 39.9151V24.2706C42.1228 22.7825 41.0701 22.172 39.7897 22.9161L34.962 25.6825Z" fill="#231F20"/>
<path d="M34.4592 39.4086C33.7583 39.0575 32.9838 38.8745 32.1983 38.8745C31.4128 38.8745 30.6383 39.0575 29.9373 39.4086L26.0785 41.5979C25.421 42.0235 24.8735 42.596 24.4799 43.2693C24.0865 43.9427 23.858 44.6981 23.813 45.4748V50.8387C23.813 52.2618 24.8353 52.8456 26.0785 52.1341L39.156 44.6539C40.3993 43.9424 40.3993 42.7838 39.156 42.0722L34.4592 39.4086Z" fill="#231F20"/>
<path d="M51.9963 25.6825C52.6735 26.1275 53.2374 26.7262 53.6426 27.4303C54.0479 28.1344 54.2832 28.9244 54.3295 29.7367V34.3537C54.2832 35.166 54.0479 35.956 53.6426 36.6601C53.2374 37.3643 52.6735 37.9629 51.9963 38.4079L47.1592 41.2697C45.8788 42.0138 44.8354 41.4033 44.8354 39.9151V24.2706C44.8354 22.7825 45.8788 22.172 47.1592 22.9161L51.9963 25.6825Z" fill="#231F20"/>
<path d="M52.059 39.4086C52.7896 39.0575 53.5968 38.8745 54.4154 38.8745C55.2341 38.8745 56.0413 39.0575 56.7719 39.4086L60.7937 41.5979C61.4778 42.024 62.0471 42.5968 62.4555 43.2702C62.864 43.9436 63.1003 44.6988 63.1454 45.4748V50.8387C63.1454 52.2618 62.0895 52.8456 60.7937 52.1341L47.1637 44.6539C45.8678 43.9424 45.8678 42.7838 47.1637 42.0722L52.059 39.4086Z" fill="#231F20"/>
<path d="M32.1581 59.3635C32.8594 59.7142 33.6343 59.8969 34.4202 59.8969C35.2062 59.8969 35.9811 59.7142 36.6824 59.3635L40.5435 57.168C41.2004 56.7406 41.7468 56.1669 42.1389 55.493C42.5309 54.8189 42.7577 54.0635 42.801 53.2872V47.9305C42.801 46.5094 41.7875 45.9264 40.5435 46.6369L27.4585 54.1071C26.2145 54.8177 26.2145 55.9746 27.4585 56.6852L32.1581 59.3635Z" fill="#231F20"/>
<path d="M43.4791 53.2916C43.525 54.066 43.7616 54.8194 44.17 55.4913C44.5785 56.1633 45.1472 56.735 45.8308 57.1608L49.8527 59.3639C50.5832 59.7143 51.3904 59.8969 52.2092 59.8969C53.0278 59.8969 53.835 59.7143 54.5656 59.3639L59.4609 56.6783C60.7567 55.9682 60.7567 54.812 59.4609 54.1019L45.8308 46.6367C44.535 45.9266 43.4791 46.5093 43.4791 47.9294V53.2916Z" fill="#231F20"/>
</svg>
